<?xml version="1.0" encoding="utf-8"?>
<svg viewBox="0 0 100 100" xmlns="http://www.w3.org/2000/svg">
  <linearGradient id="a" x1="30.241" x2="130.793" y1="150.124" y2="49.572" gradientTransform="matrix(.638 0 0 .638 -4.838 -2.54)" gradientUnits="userSpaceOnUse">
    <stop offset="0.031" stop-color="#6b3d91"/>
    <stop offset="0.322" stop-color="#ae278f"/>
    <stop offset="0.636" stop-color="#e70075"/>
    <stop offset="0.697" stop-color="#ec006c"/>
    <stop offset="0.798" stop-color="#f80152"/>
    <stop offset="0.849" stop-color="#ff0143"/>
    <stop offset="0.884" stop-color="#ff0b39"/>
    <stop offset="0.943" stop-color="#ff271f"/>
    <stop offset="1" stop-color="#ff4700"/>
  </linearGradient>
  <path fill="url(#a)" d="M51.753 35.166c-.025 1.956.916 3.413 2.96 4.442 2.084 1.138 5.376 2.339 9.96 3.676 4.662 1.468 8.571 2.814 11.582 4.16 3.031 1.354 5.701 3.378 7.895 5.953 2.265 2.609 3.395 6.093 3.395 10.352 0 6.896-2.634 12.32-7.852 16.081-5.094 3.662-12.334 5.542-21.624 5.611H36.377c-.957-.013-1.875-.403-2.49-1.018a3.58 3.58 0 0 1-1.019-2.491 3.58 3.58 0 0 1 1.019-2.491c.615-.615 1.533-1.005 2.49-1.018H49.01a2.735 2.735 0 0 0 2.039-.832c.533-.533.832-1.21.832-2.039 0-.829-.299-1.506-.832-2.039a2.735 2.735 0 0 0-2.039-.832H23.936c-.957-.013-1.875-.403-2.49-1.018a3.58 3.58 0 0 1-1.019-2.491 3.58 3.58 0 0 1 1.019-2.491c.615-.615 1.533-1.005 2.49-1.018 0 0 11.42-.016 22.84-.04 5.71-.012 11.42-.026 15.703-.041 2.141-.007 3.925-.015 5.173-.023a282.24 282.24 0 0 0 1.827-.017l.088-.003c.64-.14 1.144-.486 1.539-.984.4-.503.617-1.085.617-1.763 0-.829-.299-1.506-.832-2.039a2.735 2.735 0 0 0-2.039-.832h-27.69c-.957-.013-1.875-.403-2.49-1.018a3.585 3.585 0 0 1-1.019-2.491c0-.958.404-1.875 1.019-2.491.615-.615 1.527-1.005 2.485-1.018l1.778-.032 1.209-.022.389-.007.103-.002h.014a2.923 2.923 0 0 0 1.877-.944c.49-.526.76-1.161.76-1.928 0-.829-.298-1.506-.832-2.039a2.733 2.733 0 0 0-2.039-.832H17.492c-.957-.013-1.875-.403-2.49-1.018a3.585 3.585 0 0 1-1.019-2.491c0-.958.404-1.875 1.019-2.491.615-.615 1.532-1.005 2.489-1.018l16.491-.064c.634-.143 1.142-.479 1.558-.991a2.795 2.795 0 0 0 .646-1.816c0-.741-.23-1.351-.659-1.86a2.66 2.66 0 0 0-1.69-.952l-.267-.04v-.019h-4.211c-.957-.013-1.875-.403-2.49-1.018a3.58 3.58 0 0 1-1.019-2.491 3.58 3.58 0 0 1 1.019-2.491c.615-.615 1.533-1.005 2.49-1.018h17.737a2.735 2.735 0 0 0 2.039-.832c.533-.533.832-1.21.832-2.039 0-.738-.243-1.345-.687-1.856a2.785 2.785 0 0 0-1.726-.956l-.267-.04v-.019H42.63c-.958-.013-1.875-.403-2.491-1.018a3.584 3.584 0 0 1-1.018-2.491c0-.958.403-1.875 1.018-2.491.616-.615 1.533-1.005 2.491-1.018h20.416c.35.003.687.07 1.017.192 4.526.069 8.741.58 12.654 1.605 4.108 1.093 7.418 2.589 9.747 4.395 2.024 1.587 3.059 3.691 3.059 6.185 0 1.968-.615 3.675-1.864 5.122-1.255 1.453-2.919 2.215-4.835 2.215-1.644 0-3.311-.539-4.813-1.507-2.022-.946-4.341-1.761-7.01-2.523-2.724-.698-5.426-1.074-8.274-1.074-3.477 0-6.138.557-8.138 1.682-1.978 1.113-2.926 2.495-2.836 4.315ZM12.452 72.49H7.986a3.16 3.16 0 0 1-3.19-3.19 3.159 3.159 0 0 1 3.19-3.19h4.466a3.158 3.158 0 0 1 3.19 3.19c0 1.786-1.467 3.19-3.19 3.19ZM29.87 21.449c-.83 0-1.659-.319-2.233-.957-.128-.127-.256-.319-.383-.51-.128-.191-.192-.383-.319-.574a384.95 384.95 0 0 0-.192-.574c-.063-.192-.063-.383-.063-.638 0-.192 0-.383.063-.638l.192-.575c.064-.191.191-.382.319-.574.127-.191.255-.319.383-.51a3.227 3.227 0 0 1 2.871-.893l.574.191c.191.064.383.191.574.319.191.128.319.255.51.383.128.127.256.319.383.51.128.192.192.383.319.574l.192.575c.063.191.063.382.063.638 0 .191 0 .446-.063.638l-.192.574c-.064.191-.191.383-.319.574-.127.191-.255.319-.383.51-.127.128-.319.256-.51.383-.191.128-.383.192-.574.319l-.574.192a2.427 2.427 0 0 1-.638.063ZM7.986 46.969c-.829 0-1.659-.319-2.233-.957-.127-.127-.255-.319-.383-.51-.127-.191-.191-.383-.319-.574l-.191-.574c-.064-.192-.064-.383-.064-.638 0-.192 0-.383.064-.638l.191-.575c.064-.191.192-.382.319-.574.128-.191.256-.319.383-.51.128-.128.319-.255.511-.383.191-.128.382-.191.574-.319l.574-.191a3.85 3.85 0 0 1 1.212 0l.574.191c.192.064.383.191.575.319.191.128.319.255.51.383.128.127.255.319.383.51.127.192.191.383.319.574l.191.575c.064.191.064.382.064.638 0 .191 0 .446-.064.638l-.191.574c-.064.191-.192.383-.319.574-.128.191-.255.319-.383.51a3.237 3.237 0 0 1-2.297.957Z"/>
</svg>