<svg width="513" height="512" viewBox="0 0 513 512" xmlns="http://www.w3.org/2000/svg" xmlns:xlink="http://www.w3.org/1999/xlink">
    <defs>
        <path id="1pg9miqf9a" d="M0 347h513V0H0z"/>
    </defs>
    <g fill="none" fill-rule="evenodd">
        <rect fill="#F6F7F7" width="512" height="512" rx="256"/>
        <g transform="translate(0 83)">
            <mask id="64w4doy3gb" fill="#fff">
                <use xlink:href="#1pg9miqf9a"/>
            </mask>
            <path fill="#212426" mask="url(#64w4doy3gb)" d="M62.067 74.745h8.622V66.11h-8.622zM62.067 92.015h8.622V83.38h-8.622zM72.094 65.756h8.622v-8.635h-8.622zM89.338 65.756h8.621v-8.635h-8.621zM166.11 166.708l-3.63-7.832a17.85 17.85 0 0 0-8.157 7.624l7.544 4.171a9.336 9.336 0 0 1 4.242-3.963M62.067 178.366h8.622v-8.635h-8.622zM158.31 65.756h8.623v-8.635h-8.622zM62.067 161.096h8.622v-8.635h-8.622zM62.067 109.285h8.622v-8.635h-8.622zM62.067 126.555h8.622v-8.635h-8.622zM62.067 143.826h8.622v-8.635h-8.622zM211.066 95.616l8.061-3.083-3.078-8.073-8.061 3.09zM217.22 111.747l8.061-3.074-3.078-8.074-8.06 3.074zM215.203 151.895c-2.75.207-5.647.45-8.638.717l.75 8.6c2.966-.267 5.828-.5 8.552-.708l-.664-8.609zM226.827 151.064l-2.983.199.595 8.618 2.94-.199a12.554 12.554 0 0 0 10.415-6.994l-7.734-3.808a3.853 3.853 0 0 1-3.233 2.184M198.33 231.643l5.898 6.287 6.294-5.907-5.915-6.303zM223.375 127.884l8.061-3.083-3.078-8.074-8.06 3.091zM204.91 79.484l8.062-3.083-3.078-8.073-8.061 3.09zM198.777 162.006l-.853-8.592c-2.854.285-5.75.587-8.63.907l.957 8.583c2.845-.32 5.699-.613 8.526-.898M175.554 65.756h8.622v-8.635h-8.622zM198.865 66.548l4.561-7.331a13.785 13.785 0 0 0-7.31-2.099h-3.32v8.635h3.32c.965 0 1.922.277 2.75.795M62.067 195.636h8.622v-8.635h-8.622zM181.765 163.929l-1.12-8.557a364.76 364.76 0 0 0-8.64 1.234l1.328 8.532c2.707-.423 5.544-.83 8.432-1.21M229.53 144.015l8.061-3.083-3.078-8.074-8.06 3.092zM192.795 213.125l-6.285 5.907 5.906 6.295 6.285-5.907zM180.557 275.914l.156 8.635 8.621.026-.155-8.635zM186.89 206.809l-5.915-6.295-6.277 5.915 5.906 6.304zM163.311 275.798l.164 8.773h8.613l-.155-8.773zM175.076 194.219l-5.906-6.295-6.285 5.906 5.906 6.313zM228.75 272.23l5.89 6.303c2.879-2.694 4.526-6.493 4.526-11.018l-8.622.579a5.794 5.794 0 0 1-1.793 4.136M160.75 176.4l-8.553 1.045c.457 3.748 2.095 7.228 4.837 10.147l.043.043 6.147-6.053c-1.388-1.477-2.241-3.264-2.474-5.181M228.238 250.92l-6.285 5.907 5.905 6.303 6.286-5.915zM197.576 275.914l.156 8.635 8.621-.155-.155-8.635zM214.82 275.3l.155 8.635 8.613-.156-.147-8.635zM222.015 244.276l-5.595-5.959-6.277 5.915 5.898 6.287zM111.406 275.813v8.635l8.958.035-.146-8.635zM73.444 252.127l-6.329 5.871 5.846 6.339 6.337-5.872zM78.824 270.678l5.854 6.33 6.328-5.864-5.863-6.338zM70.69 245.456v-6.64h-8.622v6.64c0 .88.07 1.762.19 2.625l8.535-1.287a8.582 8.582 0 0 1-.103-1.338M99.439 275.914c-1.199-.008-2.337-.207-3.38-.604l-3.052 8.074c2.009.76 4.156 1.157 6.492 1.165l3.63-.069-.155-8.635-3.535.07zM146.075 275.849l.155 8.635 8.622.069-.155-8.756zM62.067 230.185h8.622v-8.635h-8.622zM128.752 275.88l.163 8.635 8.7-.095-.164-8.618zM106.58 65.756h8.623v-8.635h-8.622zM141.068 65.756h8.621v-8.635h-8.621zM62.067 212.915h8.622v-8.635h-8.622zM123.824 65.756h8.622v-8.635h-8.622zM436.66 83.127 412.39 59.51c-1.57-1.571-3.786-2.47-6.07-2.47H257.596c-3.345 0-6.328 1.883-7.768 4.923-.147.293-.19.613-.293.915l117.392 146.477c2.242 2.763.345 6.908-3.19 6.994l-73.542 2.59c-3.19.087-5.173 3.627-3.621 6.39l32.865 59.513c.164.017.32.07.492.07h110.71c4.76 0 8.622-3.87 8.622-8.636V89.327c0-2.34-.888-4.473-2.604-6.2"/>
            <path d="M334.685 329.817 186.048 181.64c-2.673-2.676-.863-7.253 2.931-7.34l80.957-2.849c3.018-.086 5-3.195 3.794-6.045L218.982 38.297c-1.983-4.576 4.139-8.376 7.329-4.404L366.93 209.358c2.242 2.763.345 6.908-3.19 6.994l-73.543 2.59c-3.19.087-5.173 3.628-3.62 6.39l54.833 99.304c2.414 4.404-3.276 8.635-6.811 5.181h.086z" fill="#EAC24E" mask="url(#64w4doy3gb)"/>
        </g>
    </g>
</svg>
