<?xml version="1.0" encoding="utf-8"?>
<svg id="Ebene_1" data-name="Ebene 1" width="44" height="44px" viewBox="0 0 44 44" xmlns="http://www.w3.org/2000/svg">
  <defs>
    <style>
      .cls-1 {
        fill: #282c31;
      }

      .cls-1, .cls-2 {
        stroke-width: 0px;
      }

      .cls-2 {
        fill: #f2cc50;
      }
    </style>
  </defs>
  <path class="cls-1" d="M 43.411 11.922 L 40.591 9.182 C 40.411 9.002 40.151 8.892 39.891 8.892 L 22.641 8.892 C 22.251 8.892 21.911 9.112 21.741 9.462 C 21.581 9.802 21.621 10.192 21.871 10.522 C 21.871 10.522 34.961 26.832 34.961 26.832 L 26.431 27.132 C 26.081 27.132 25.771 27.332 25.591 27.642 C 25.421 27.952 25.411 28.312 25.591 28.622 L 28.991 34.772 C 29.171 35.092 29.501 35.292 29.871 35.292 L 42.711 35.292 C 43.261 35.292 43.711 34.842 43.711 34.292 L 43.711 12.642 C 43.711 12.372 43.611 12.122 43.411 11.922 Z"/>
  <path style="stroke-linejoin: round; stroke-linecap: round; stroke: rgb(40, 44, 49); fill: rgb(255, 255, 255); stroke-width: 2px;" d="M 1.43 10.346 C 1.183 10.607 1.188 11.256 1.188 11.256 L 1.203 30.311 C 1.203 30.311 1.245 30.766 1.325 30.969 C 1.425 31.222 1.761 31.564 1.761 31.564 L 3.606 33.52 C 3.606 33.52 3.922 33.916 4.178 34.025 C 4.435 34.135 5.059 34.139 5.059 34.139 L 18.233 33.919 C 18.233 33.919 19.3 34.011 19.685 33.299 C 20.095 32.54 19.347 31.904 19.347 31.904 L 12.451 24.487 C 12.451 24.487 10.863 23.18 11.339 21.992 C 11.815 20.805 13.907 20.851 13.907 20.851 L 18.311 20.405 C 18.311 20.405 19.15 20.448 19.507 19.913 C 19.873 19.362 19.659 18.942 19.659 18.942 L 16.681 11.136 C 16.681 11.136 16.412 10.402 16.084 10.177 C 15.826 9.999 15.314 10.02 15.314 10.02 L 2.435 10.031 C 2.435 10.031 1.75 10.009 1.43 10.346 Z"/>
  <path id="Path-2" data-name="Path" class="cls-2" d="M 33.034 42.225 L 13.905 23.186 C 13.562 22.843 13.794 22.254 14.283 22.242 L 24.701 21.878 C 25.09 21.866 25.345 21.467 25.189 21.1 L 18.143 4.768 C 17.888 4.18 18.677 3.691 19.088 4.202 L 37.182 26.748 C 37.472 27.103 37.229 27.636 36.772 27.647 L 27.31 27.979 C 26.899 27.99 26.643 28.445 26.844 28.801 L 33.899 41.561 C 34.211 42.127 33.478 42.67 33.024 42.225 L 33.034 42.225 Z" style="fill: rgb(255, 195, 0);"/>
</svg>